<svg width="94" height="160" viewBox="0 0 94 160" fill="none" xmlns="http://www.w3.org/2000/svg">
<path d="M93.0242 81.6344L46.5002 0L0 81.6344L46.524 111.584L93.0242 81.6344ZM49.8791 54.2933V19.6206L79.2615 71.1769L49.8791 54.2933ZM82.0141 80.6205L49.8791 101.319V62.1567L82.0141 80.6205ZM43.1195 54.2933L13.7677 71.1597L43.1195 19.6292V54.2933ZM43.1195 62.1567V101.289L10.9999 80.6119L43.1195 62.1567Z" fill="black"/>
<path d="M46.4996 121.26L0.0266816 91.3105L46.5013 160L93.0253 91.3105L46.4996 121.26ZM42.8687 127.025L43.1207 127.188V142.899L24.2734 115.042L42.8687 127.025ZM68.7667 115.03L49.8803 142.913V127.186L50.1305 127.025L68.7667 115.03Z" fill="black"/>
</svg>
