<svg width="685" height="160" viewBox="0 0 685 160" fill="none" xmlns="http://www.w3.org/2000/svg">
<path d="M179.857 47.8046H207.834C229.172 47.8046 243.683 61.4237 243.683 81.3721C243.683 101.32 229.174 114.94 207.834 114.94H179.857V47.8046ZM207.264 106.594C223.671 106.594 234.199 96.4289 234.199 81.3698C234.199 66.313 223.671 56.1455 207.264 56.1455H189.339V106.592H207.264V106.594Z" fill="black"/>
<path d="M325.343 106.594V114.937H277.167V47.8023H324.015V56.1456H286.651V76.7653H319.938V84.9164H286.651V106.589H325.343V106.594Z" fill="black"/>
<path d="M416.397 47.8046L387.283 114.94H377.892L348.682 47.8046H358.924L382.823 102.95L406.91 47.8046H416.397Z" fill="black"/>
<path d="M437.74 81.3699C437.74 61.5187 452.725 47.0361 472.926 47.0361C483.168 47.0361 492.082 50.585 498.153 57.4883L491.988 63.5305C486.867 58.0647 480.608 55.5715 473.306 55.5715C458.323 55.5715 447.224 66.5052 447.224 81.3699C447.224 96.2368 458.32 107.171 473.306 107.171C480.608 107.171 486.867 104.58 491.988 99.1143L498.153 105.156C492.084 112.06 483.17 115.706 472.832 115.706C452.725 115.704 437.74 101.226 437.74 81.3699Z" fill="black"/>
<path d="M523.859 81.3699C523.859 61.7109 538.844 47.0361 559.234 47.0361C579.434 47.0361 594.42 61.6113 594.42 81.3699C594.42 101.128 579.437 115.704 559.234 115.704C538.844 115.704 523.859 101.033 523.859 81.3699ZM584.935 81.3699C584.935 66.5052 573.933 55.5715 559.234 55.5715C544.345 55.5715 533.343 66.5052 533.343 81.3699C533.343 96.2368 544.345 107.171 559.234 107.171C573.933 107.171 584.935 96.2368 584.935 81.3699Z" fill="black"/>
<path d="M685 47.8046V114.94H677.224L637.391 64.8754V114.937H627.907V47.8023H635.683L675.514 97.8642V47.8046H685Z" fill="black"/>
<path d="M93.0242 81.6344L46.5002 0L0 81.6344L46.524 111.584L93.0242 81.6344ZM49.8791 54.2933V19.6206L79.2615 71.1769L49.8791 54.2933ZM82.0141 80.6205L49.8791 101.319V62.1567L82.0141 80.6205ZM43.1195 54.2933L13.7677 71.1597L43.1195 19.6292V54.2933V54.2933ZM43.1195 62.1567V101.289L10.9999 80.6119L43.1195 62.1567Z" fill="black"/>
<path d="M46.4998 121.26L0.0268555 91.3105L46.5015 160L93.0255 91.3105L46.4998 121.26ZM42.8689 127.025L43.1208 127.188V142.899L24.2736 115.042L42.8689 127.025ZM68.7668 115.03L49.8804 142.913V127.186L50.1307 127.025L68.7668 115.03Z" fill="black"/>
</svg>
