<svg width="506" height="69" viewBox="0 0 506 69" fill="none" xmlns="http://www.w3.org/2000/svg">
<path d="M0 0.768449H27.9766C49.3145 0.768449 63.8259 14.3876 63.8259 34.336C63.8259 54.2843 49.3168 67.9035 27.9766 67.9035H0V0.768449ZM27.4066 59.5579C43.8135 59.5579 54.3416 49.3927 54.3416 34.3337C54.3416 19.2769 43.8135 9.10939 27.4066 9.10939H9.48197V59.5556H27.4066V59.5579Z" fill="black"/>
<path d="M145.486 67.9013H97.3089V0.766205H144.158V9.10947H106.793V29.7292H140.081V37.8803H106.793V59.5534H145.486V67.9013Z" fill="black"/>
<path d="M236.539 0.768449L207.425 67.9035H198.035L168.824 0.768449H179.066L202.966 55.9141L227.053 0.768449H236.539Z" fill="black"/>
<path d="M257.883 34.3338C257.883 14.4826 272.868 0 293.068 0C303.31 0 312.224 3.5489 318.295 10.4522L312.13 16.4944C307.009 11.0287 300.751 8.53541 293.448 8.53541C278.465 8.53541 267.367 19.4692 267.367 34.3338C267.367 49.2007 278.463 60.1345 293.448 60.1345C300.751 60.1345 307.009 57.544 312.13 52.0783L318.295 58.1204C312.227 65.0238 303.312 68.6699 292.974 68.6699C272.868 68.6676 257.883 54.1895 257.883 34.3338Z" fill="black"/>
<path d="M344.001 34.3338C344.001 14.6748 358.987 0 379.377 0C399.577 0 414.562 14.5752 414.562 34.3338C414.562 54.0923 399.579 68.6676 379.377 68.6676C358.987 68.6676 344.001 53.9974 344.001 34.3338ZM405.078 34.3338C405.078 19.4692 394.076 8.53541 379.377 8.53541C364.488 8.53541 353.486 19.4692 353.486 34.3338C353.486 49.2007 364.488 60.1345 379.377 60.1345C394.076 60.1345 405.078 49.2007 405.078 34.3338Z" fill="black"/>
<path d="M505.142 0.768528V67.9036H497.366L457.533 17.8393V67.9012H448.049V0.766205H455.826L495.656 50.8281V0.768528H505.142Z" fill="black"/>
</svg>
