<svg width="52" height="90" viewBox="0 0 52 90" fill="none" xmlns="http://www.w3.org/2000/svg">
<path d="M52 45.8269L25.9933 0L0 45.8269L26.0067 62.6393L52 45.8269ZM27.8822 30.4785V11.0144L44.3068 39.9564L27.8822 30.4785ZM45.8454 45.2577L27.8822 56.877V34.8927L45.8454 45.2577ZM24.1036 30.4785L7.69609 39.9467L24.1036 11.0192V30.4785V30.4785ZM24.1036 34.8927V56.8606L6.14888 45.2529L24.1036 34.8927Z" fill="#F9F8FA"/>
<path d="M25.9918 68.0707L0.0136719 51.2583L25.9927 89.8183L51.9994 51.2583L25.9918 68.0707ZM23.9621 71.307L24.103 71.3988V80.2186L13.5675 64.5803L23.9621 71.307ZM38.4389 64.5735L27.8816 80.2264V71.3979L28.0214 71.307L38.4389 64.5735Z" fill="#F9F8FA"/>
</svg>
